<svg width="266" height="139" viewBox="0 0 266 139" fill="none" xmlns="http://www.w3.org/2000/svg">
<g clip-path="url(#clip0_31_762)">
<path d="M196.079 3.0918H69.2886C32.7291 3.0918 3.0918 32.7291 3.0918 69.2886V69.289C3.0918 105.848 32.7291 135.486 69.2886 135.486H196.079C232.638 135.486 262.276 105.848 262.276 69.289V69.2886C262.276 32.7291 232.638 3.0918 196.079 3.0918Z" stroke="white" stroke-width="6.18362"/>
<path d="M149.578 69.1576C149.578 64.7025 150.267 60.3832 151.561 56.3978L143.812 53.1731C142.143 58.2507 141.184 63.6103 141.184 69.1576C141.184 74.7049 142.143 80.0646 143.864 85.1422L151.561 81.9281C150.277 77.9427 149.578 73.6127 149.578 69.1576ZM172.089 32.0288L168.979 24.5084C159.25 29.3666 151.304 37.3122 146.446 46.9891L154.029 50.2032C158.013 42.3883 164.326 36.0757 172.089 32.0288ZM191.106 27.4844C195.561 27.4844 199.88 28.2255 203.928 29.5093L207.09 21.8639C202.065 20.1431 196.705 19.1836 191.106 19.1836C185.558 19.1836 180.147 20.1431 175.121 21.8639L178.346 29.5093C182.331 28.2149 186.651 27.4844 191.106 27.4844ZM228.235 50.1513L235.869 46.9891C230.959 37.3016 223.003 29.356 213.274 24.4459L210.112 32.0288C217.886 36.0238 224.291 42.3258 228.235 50.1513ZM232.831 69.1576C232.831 73.6127 232.142 77.9427 230.858 81.9801L238.451 85.1422C240.224 80.1165 241.184 74.7049 241.184 69.1576C241.184 63.6103 240.224 58.2093 238.451 53.1837L230.816 56.3459C232.152 60.3832 232.831 64.7025 232.831 69.1576ZM210.112 106.286L213.274 113.869C223.003 108.959 231.011 101.014 235.859 91.3367L228.286 88.1746C224.343 95.9895 217.937 102.291 210.112 106.286ZM191.158 110.831C186.651 110.831 182.331 110.1 178.346 108.806L175.173 116.451C180.199 118.172 185.61 119.132 191.158 119.132C196.757 119.132 202.106 118.183 207.132 116.503L203.907 108.868C199.869 110.1 195.602 110.831 191.158 110.831ZM154.081 88.1746L146.456 91.3367C151.367 101.014 159.26 108.959 168.989 113.817L172.099 106.235C164.326 102.239 158.024 95.9375 154.081 88.1746Z" fill="white" fill-opacity="0.85"/>
<path d="M191.105 93.7593C201.34 93.7593 208.251 86.9311 208.251 83.711C208.251 82.5244 207.127 81.9942 206.035 82.5149C202.503 84.3945 198.246 86.6572 191.105 86.6572C184.016 86.6572 179.77 84.384 176.228 82.5149C175.135 81.9942 174.011 82.5244 174.011 83.711C174.011 86.9311 180.922 93.7593 191.105 93.7593ZM176.591 64.8712C179.707 64.8712 182.468 62.0465 182.468 58.1393C182.468 54.1907 179.717 51.3662 176.591 51.3662C173.518 51.3662 170.819 54.1907 170.819 58.1393C170.819 62.0465 173.528 64.8712 176.591 64.8712ZM205.671 64.8712C208.786 64.8712 211.496 62.0465 211.496 58.1393C211.496 54.1907 208.797 51.3662 205.671 51.3662C202.546 51.3662 199.899 54.1907 199.899 58.1393C199.899 62.0465 202.556 64.8712 205.671 64.8712Z" fill="white" fill-opacity="0.85"/>
<path d="M56.607 90.8956C56.6055 97.2549 51.4455 102.41 45.0861 102.41H42.6448C33.5551 102.41 26.1836 95.0391 26.1836 85.949V80.7976C26.1843 75.1981 30.0956 70.5202 35.3337 69.3278V76.5045C35.3367 81.1808 39.1273 84.9753 43.8046 84.9753C48.4812 84.9746 52.2724 81.1801 52.2754 76.5045V69.0266H56.607V90.8956ZM49.7188 76.5045L49.6867 77.1068C49.685 77.1239 49.6758 77.1403 49.6739 77.158C49.6987 76.9408 49.7188 76.7217 49.7188 76.4979V76.5045Z" fill="white"/>
<path d="M38.6465 50.2744H48.8167V76.7189C48.8167 79.5279 46.54 81.804 43.7316 81.804C40.9232 81.804 38.6465 79.5279 38.6465 76.7189V50.2744Z" fill="white"/>
<path d="M94.1816 90.8956C94.183 97.2549 99.3428 102.41 105.702 102.41H108.144C117.233 102.41 124.605 95.0391 124.605 85.949V80.7976C124.604 75.1981 120.693 70.5202 115.455 69.3278V76.5045C115.452 81.1808 111.661 84.9753 106.984 84.9753C102.307 84.9746 98.5161 81.1801 98.5128 76.5045V69.0266H94.1816V90.8956ZM101.07 76.5045L101.102 77.1068C101.103 77.1239 101.112 77.1403 101.114 77.158C101.089 76.9408 101.07 76.7217 101.07 76.4979V76.5045Z" fill="white"/>
<path d="M75.3623 18.1856C80.1693 18.2338 84.9208 19.1345 89.3439 20.832C93.7663 22.5295 97.7759 24.9871 101.134 28.0726C104.491 31.1578 107.13 34.8074 108.906 38.8054C110.23 41.7867 111.048 44.9213 111.347 48.1028C110.091 47.3484 108.626 46.9052 107.054 46.9046C104.808 46.9052 102.77 47.7945 101.268 49.2369C101.087 46.8029 100.497 44.4015 99.4871 42.1245C98.2064 39.2399 96.2957 36.6101 93.8739 34.3841C91.4514 32.158 88.5618 30.3801 85.3709 29.1554C82.1808 27.931 78.7529 27.2809 75.2854 27.246C71.8173 27.2113 68.3729 27.7898 65.1614 28.9504C61.952 30.1106 59.0344 31.8305 56.5752 34.006C54.1148 36.1834 52.158 38.7788 50.8275 41.6375C49.4972 44.4961 48.8176 47.566 48.822 50.6658L38.6787 50.6466C38.6726 46.3496 39.6219 42.0951 41.466 38.1326C43.3098 34.1707 46.0148 30.5776 49.4243 27.56C52.8346 24.5419 56.8845 22.1589 61.3361 20.55C65.7875 18.9412 70.555 18.1375 75.3623 18.1856Z" fill="white"/>
<path d="M112.137 55.2692C112.137 52.4608 109.86 50.1841 107.052 50.1841C104.244 50.1841 101.967 52.4608 101.967 55.2692V76.6291C101.967 79.4374 104.244 81.7142 107.052 81.7142C109.86 81.7142 112.137 79.4374 112.137 76.6291V55.2692Z" fill="white"/>
<path d="M98.3588 106.3C98.3588 108.338 97.7591 110.331 96.6358 112.025C95.5125 113.72 93.9161 115.042 92.0481 115.821C90.18 116.601 88.1244 116.805 86.1408 116.408C84.158 116.01 82.3365 115.028 80.9065 113.588C79.4767 112.146 78.503 110.309 78.1086 108.31C77.7141 106.312 77.9165 104.24 78.6903 102.356C79.4641 100.473 80.7745 98.8632 82.456 97.7313C84.137 96.5988 86.1133 95.9939 88.1355 95.9939V106.3H98.3588Z" fill="white"/>
<path d="M77.8418 60.0906C77.8418 57.2638 80.1334 54.9722 82.96 54.9722C85.7866 54.9722 88.0785 57.2638 88.0785 60.0906V104.033H77.8418V60.0906Z" fill="white"/>
<path d="M52.4678 102.658C52.4678 104.675 53.0658 106.646 54.1861 108.322C55.3063 109.999 56.8985 111.306 58.7615 112.077C60.6244 112.849 62.6743 113.051 64.652 112.657C66.6296 112.264 68.4462 111.293 69.872 109.867C71.2979 108.442 72.2688 106.625 72.6623 104.647C73.0556 102.67 72.8537 100.62 72.082 98.7571C71.3104 96.8943 70.0037 95.3018 68.3271 94.1818C66.6505 93.0611 64.6794 92.4634 62.663 92.4634V102.658H52.4678Z" fill="white"/>
<path d="M62.6875 73.7987C62.6875 71.0011 64.9554 68.7332 67.753 68.7332C70.5506 68.7332 72.8184 71.0011 72.8184 73.7987V101.963H62.6875V73.7987Z" fill="white"/>
</g>
<defs>
<clipPath id="clip0_31_762">
<rect width="266" height="139" fill="white"/>
</clipPath>
</defs>
</svg>
