<svg width="361" height="139" viewBox="0 0 361 139" fill="none" xmlns="http://www.w3.org/2000/svg">
<g clip-path="url(#clip0_31_748)">
<path d="M291.079 3.0918H69.2886C32.7291 3.0918 3.0918 32.7291 3.0918 69.2886V69.289C3.0918 105.848 32.7291 135.486 69.2886 135.486H291.079C327.638 135.486 357.276 105.848 357.276 69.289V69.2886C357.276 32.7291 327.638 3.0918 291.079 3.0918Z" stroke="white" stroke-width="6.18362"/>
<path d="M247.578 68.1576C247.578 63.7025 248.267 59.3832 249.561 55.3978L241.812 52.1731C240.143 57.2507 239.184 62.6103 239.184 68.1576C239.184 73.7049 240.143 79.0646 241.864 84.1422L249.561 80.9281C248.277 76.9427 247.578 72.6127 247.578 68.1576ZM270.089 31.0288L266.979 23.5084C257.25 28.3666 249.304 36.3122 244.446 45.9891L252.029 49.2032C256.013 41.3883 262.326 35.0757 270.089 31.0288ZM289.106 26.4844C293.561 26.4844 297.88 27.2255 301.928 28.5093L305.09 20.8639C300.065 19.1431 294.705 18.1836 289.106 18.1836C283.558 18.1836 278.147 19.1431 273.121 20.8639L276.346 28.5093C280.331 27.2149 284.651 26.4844 289.106 26.4844ZM326.235 49.1513L333.869 45.9891C328.959 36.3016 321.003 28.356 311.274 23.4459L308.112 31.0288C315.886 35.0238 322.291 41.3258 326.235 49.1513ZM330.831 68.1576C330.831 72.6127 330.142 76.9427 328.858 80.9801L336.451 84.1422C338.224 79.1165 339.184 73.7049 339.184 68.1576C339.184 62.6103 338.224 57.2093 336.451 52.1837L328.816 55.3459C330.152 59.3832 330.831 63.7025 330.831 68.1576ZM308.112 105.286L311.274 112.869C321.003 107.959 329.011 100.014 333.859 90.3367L326.286 87.1746C322.343 94.9895 315.937 101.291 308.112 105.286ZM289.158 109.831C284.651 109.831 280.331 109.1 276.346 107.806L273.173 115.451C278.199 117.172 283.61 118.132 289.158 118.132C294.757 118.132 300.106 117.183 305.132 115.503L301.907 107.868C297.869 109.1 293.602 109.831 289.158 109.831ZM252.081 87.1746L244.456 90.3367C249.367 100.014 257.26 107.959 266.989 112.817L270.099 105.235C262.326 101.239 256.024 94.9375 252.081 87.1746Z" fill="white" fill-opacity="0.85"/>
<path d="M289.105 92.7593C299.34 92.7593 306.251 85.9311 306.251 82.711C306.251 81.5244 305.127 80.9942 304.035 81.5149C300.503 83.3945 296.246 85.6572 289.105 85.6572C282.016 85.6572 277.77 83.384 274.228 81.5149C273.135 80.9942 272.011 81.5244 272.011 82.711C272.011 85.9311 278.922 92.7593 289.105 92.7593ZM274.591 63.8712C277.707 63.8712 280.468 61.0465 280.468 57.1393C280.468 53.1907 277.717 50.3662 274.591 50.3662C271.518 50.3662 268.819 53.1907 268.819 57.1393C268.819 61.0465 271.528 63.8712 274.591 63.8712ZM303.671 63.8712C306.786 63.8712 309.496 61.0465 309.496 57.1393C309.496 53.1907 306.797 50.3662 303.671 50.3662C300.546 50.3662 297.899 53.1907 297.899 57.1393C297.899 61.0465 300.556 63.8712 303.671 63.8712Z" fill="white" fill-opacity="0.85"/>
<path d="M133.184 45.7053H141.574V34.7919C141.574 29.4165 144.472 26.629 149.681 26.629H160.484V18.1836H149.548C138.672 18.1836 133.184 23.617 133.184 34.3823V45.7053ZM167.618 26.629H194.804V18.1836H167.618V26.629ZM220.793 45.7053H229.184V34.3823C229.184 23.6395 223.695 18.1836 212.819 18.1836H201.938V26.629H212.686C217.85 26.629 220.793 29.4165 220.793 34.7919V45.7053ZM220.793 79.5944H229.184V52.8393H220.793V79.5944ZM201.938 114.239H212.819C223.695 114.239 229.184 108.783 229.184 98.0402V86.7172H220.793V97.6306C220.793 103.061 217.85 105.793 212.686 105.793H201.938V114.239ZM167.618 114.239H194.804V105.793H167.618V114.239ZM149.548 114.239H160.484V105.793H149.681C144.472 105.793 141.574 103.061 141.574 97.6306V86.7172H133.184V98.0402C133.184 108.806 138.672 114.239 149.548 114.239ZM133.184 79.5944H141.574V52.8393H133.184V79.5944Z" fill="white" fill-opacity="0.85"/>
<path d="M55.4488 88.7368C55.4473 95.0961 50.2873 100.252 43.9279 100.252H41.4866C32.3969 100.252 25.0254 92.8804 25.0254 83.7902V78.6388C25.0261 73.0393 28.9374 68.3614 34.1755 67.169V74.3457C34.1785 79.022 37.9691 82.8165 42.6464 82.8165C47.323 82.8158 51.1142 79.0214 51.1172 74.3457V66.8679H55.4488V88.7368ZM48.5606 74.3457L48.5285 74.948C48.5268 74.9651 48.5176 74.9815 48.5157 74.9992C48.5405 74.782 48.5606 74.5629 48.5606 74.3391V74.3457Z" fill="white"/>
<path d="M37.4883 48.1157H47.6585V74.5602C47.6585 77.3692 45.3818 79.6453 42.5734 79.6453C39.765 79.6453 37.4883 77.3692 37.4883 74.5602V48.1157Z" fill="white"/>
<path d="M93.0234 88.7368C93.0247 95.0961 98.1846 100.252 104.544 100.252H106.985C116.075 100.252 123.447 92.8804 123.447 83.7902V78.6388C123.446 73.0393 119.535 68.3614 114.297 67.169V74.3457C114.294 79.022 110.503 82.8165 105.826 82.8165C101.149 82.8158 97.3579 79.0214 97.3546 74.3457V66.8679H93.0234V88.7368ZM99.9116 74.3457L99.9437 74.948C99.9451 74.9651 99.9542 74.9815 99.9562 74.9992C99.9313 74.782 99.9116 74.5629 99.9116 74.3391V74.3457Z" fill="white"/>
<path d="M74.2041 16.0269C79.0111 16.0751 83.7626 16.9758 88.1857 18.6733C92.6081 20.3709 96.6177 22.8284 99.9759 25.9139C103.332 28.9991 105.972 32.6487 107.748 36.6467C109.072 39.628 109.89 42.7626 110.189 45.9441C108.933 45.1897 107.467 44.7465 105.896 44.7459C103.649 44.7465 101.612 45.6358 100.11 47.0783C99.9286 44.6442 99.3394 42.2428 98.3289 39.9658C97.0482 37.0812 95.1375 34.4514 92.7157 32.2254C90.2932 29.9993 87.4036 28.2214 84.2127 26.9968C81.0226 25.7723 77.5946 25.1222 74.1272 25.0873C70.659 25.0526 67.2147 25.6311 64.0032 26.7917C60.7938 27.9519 57.8762 29.6718 55.417 31.8473C52.9566 34.0247 50.9998 36.6201 49.6693 39.4788C48.339 42.3374 47.6594 45.4073 47.6638 48.5071L37.5205 48.4879C37.5144 44.1909 38.4637 39.9364 40.3078 35.9739C42.1516 32.012 44.8566 28.4189 48.2661 25.4013C51.6764 22.3832 55.7263 20.0002 60.1779 18.3913C64.6293 16.7826 69.3968 15.9788 74.2041 16.0269Z" fill="white"/>
<path d="M110.979 53.1105C110.979 50.3021 108.702 48.0254 105.894 48.0254C103.085 48.0254 100.809 50.3021 100.809 53.1105V74.4704C100.809 77.2787 103.085 79.5555 105.894 79.5555C108.702 79.5555 110.979 77.2787 110.979 74.4704V53.1105Z" fill="white"/>
<path d="M97.2006 104.141C97.2006 106.18 96.6009 108.172 95.4776 109.867C94.3543 111.561 92.7579 112.883 90.8899 113.662C89.0218 114.442 86.9662 114.647 84.9826 114.249C82.9998 113.851 81.1783 112.87 79.7483 111.429C78.3185 109.987 77.3448 108.151 76.9504 106.152C76.5559 104.153 76.7583 102.081 77.5321 100.198C78.3059 98.314 79.6163 96.7045 81.2978 95.5727C82.9788 94.4402 84.9551 93.8352 86.9773 93.8352V104.141H97.2006Z" fill="white"/>
<path d="M76.6836 57.9319C76.6836 55.1051 78.9752 52.8135 81.8018 52.8135C84.6284 52.8135 86.9203 55.1051 86.9203 57.9319V101.875H76.6836V57.9319Z" fill="white"/>
<path d="M51.3096 100.5C51.3096 102.516 51.9076 104.487 53.0279 106.163C54.1481 107.841 55.7403 109.147 57.6033 109.919C59.4662 110.69 61.5161 110.892 63.4938 110.499C65.4714 110.106 67.288 109.135 68.7138 107.709C70.1397 106.283 71.1106 104.466 71.5041 102.488C71.8974 100.511 71.6955 98.4612 70.9238 96.5984C70.1522 94.7356 68.8455 93.1431 67.1689 92.0231C65.4923 90.9024 63.5212 90.3047 61.5048 90.3047V100.5H51.3096Z" fill="white"/>
<path d="M61.5293 71.64C61.5293 68.8424 63.7972 66.5745 66.5948 66.5745C69.3924 66.5745 71.6602 68.8424 71.6602 71.64V99.804H61.5293V71.64Z" fill="white"/>
</g>
<defs>
<clipPath id="clip0_31_748">
<rect width="361" height="139" fill="white"/>
</clipPath>
</defs>
</svg>
